<svg width="18" height="18" viewBox="0 0 18 18" fill="none" xmlns="http://www.w3.org/2000/svg">
<g clip-path="url(#clip0_2_206)">
<path d="M12.2124 5.63873C12.2124 5.77319 12.2832 5.97487 12.4247 6.04209L14.8305 8.39504H5.44794C5.09414 8.39504 4.8111 8.66394 4.8111 9.00008C4.8111 9.33621 5.09414 9.60512 5.44794 9.60512H14.8305L12.3539 11.9581C12.2124 12.0925 12.1416 12.227 12.1416 12.3614C12.1416 12.4959 12.2124 12.6976 12.3539 12.7648C12.637 13.0337 12.9908 13.0337 13.2738 12.7648L16.8118 9.40344C17.0662 9.16175 17.0592 8.83176 16.8118 8.59672L13.2738 5.23537C12.9908 4.96646 12.637 4.96646 12.3539 5.23537C12.2832 5.3026 12.2124 5.50428 12.2124 5.63873Z" fill="#ED145B" stroke="#ED145B" stroke-width="0.25"/>
<path d="M9.72851 16.395C9.72851 16.0588 9.44547 15.7899 9.09166 15.7899H2.34365C2.27289 15.7899 2.27289 15.7227 2.27289 15.7227L2.2729 2.27731C2.2729 2.27731 2.2729 2.21008 2.34366 2.21008H9.09166C9.44546 2.21008 9.72851 1.94118 9.72851 1.60504C9.72851 1.26891 9.44546 1 9.09166 1H2.34366C1.63605 1 0.999207 1.53781 0.999207 2.27731L0.999207 15.7227C0.999207 16.395 1.63605 17 2.34365 17H9.09166C9.44547 17 9.72851 16.7311 9.72851 16.395Z" fill="#ED145B" stroke="#ED145B" stroke-width="0.25"/>
</g>
<defs>
<clipPath id="clip0_2_206">
<rect width="18" height="18" fill="white"/>
</clipPath>
</defs>
</svg>
