<svg width="19" height="21" viewBox="0 0 19 21" fill="none" xmlns="http://www.w3.org/2000/svg">
<path d="M18.1133 9.24209L3.0196 0.627016C2.76517 0.484296 2.47335 0.422366 2.18288 0.449446C1.89242 0.476516 1.61707 0.591336 1.39341 0.778626C1.16975 0.965916 1.00837 1.21683 0.930699 1.49802C0.853039 1.77922 0.862759 2.07738 0.958579 2.35292L3.74374 10.4811C3.74338 10.4841 3.74338 10.4871 3.74374 10.4901C3.74324 10.493 3.74324 10.4961 3.74374 10.4991L0.958579 18.6452C0.881839 18.8619 0.858219 19.0939 0.889689 19.3217C0.921149 19.5495 1.0068 19.7664 1.13944 19.9542C1.27207 20.142 1.44782 20.2953 1.65195 20.4011C1.85607 20.5069 2.0826 20.5623 2.31253 20.5625C2.562 20.5618 2.80708 20.4968 3.02409 20.3738L18.1097 11.7443C18.3323 11.6196 18.5176 11.438 18.6468 11.2181C18.7759 10.9981 18.8442 10.7478 18.8447 10.4927C18.8451 10.2377 18.7777 9.98709 18.6494 9.7667C18.521 9.5463 18.3363 9.36399 18.1142 9.23849L18.1133 9.24209ZM2.31253 19.125V19.1169L5.02042 11.2187H10.2187C10.4094 11.2187 10.5922 11.143 10.727 11.0082C10.8618 10.8734 10.9375 10.6906 10.9375 10.5C10.9375 10.3093 10.8618 10.1265 10.727 9.9917C10.5922 9.8569 10.4094 9.7812 10.2187 9.7812H5.02761L2.31792 1.88573L2.31253 1.87495L17.4062 10.4847L2.31253 19.125Z" fill="#ED145B"/>
</svg>
