<svg width="17" height="17" viewBox="0 0 17 17" fill="none" xmlns="http://www.w3.org/2000/svg">
<path d="M16.2928 2.86667L13.6262 0.2C13.3595 -0.0666667 13.0262 -0.0666667 12.7595 0.2L1.42615 11.5333C1.35949 11.6 1.35949 11.6 1.35949 11.6667C1.35949 11.6667 1.35949 11.6667 1.35949 11.7333L0.0261537 15.7333C-0.040513 15.9333 0.0261537 16.2 0.159487 16.3333C0.29282 16.4667 0.426154 16.5333 0.559487 16.5333C0.626154 16.5333 0.69282 16.5333 0.759487 16.5333L4.75949 15.2C4.75949 15.2 4.75949 15.2 4.82615 15.2C4.89282 15.2 4.95949 15.1333 4.95949 15.1333L16.2928 3.8C16.5595 3.46667 16.5595 3.06667 16.2928 2.86667ZM4.55949 13.7333L2.75949 11.9333L11.2262 3.46667L13.0262 5.26667L4.55949 13.7333ZM2.15949 13.0667L3.42615 14.3333L1.49282 15L2.15949 13.0667ZM13.8928 4.4L12.0928 2.6L13.2262 1.46667L15.0262 3.26667L13.8928 4.4Z" fill="#ED145B"/>
</svg>
